<?xml version="1.0" encoding="UTF-8"?>
<svg width="427px" height="87px" viewBox="0 0 427 87" version="1.1" xmlns="http://www.w3.org/2000/svg" xmlns:xlink="http://www.w3.org/1999/xlink">
    <title>Group 2</title>
    <g id="Page-1" stroke="none" stroke-width="1" fill="none" fill-rule="evenodd">
        <g id="template-copy-2" transform="translate(-48.000000, -8.000000)" fill-rule="nonzero">
            <g id="Group" transform="translate(0.000000, 5.000000)">
                <g id="Group-2" transform="translate(48.000000, 3.000000)">
                    <path d="M90.06,54 C94.98,54 96.45,50.91 96.45,46.89 C96.45,43.86 95.52,41.85 92.82,41.37 L92.82,41.31 C95.49,40.41 95.85,38.19 95.85,35.67 C95.85,31.56 93.9,30.03 89.88,30.03 L82.23,30.03 L82.23,54 L90.06,54 Z M88.77,39.51 L87.75,39.51 L87.75,34.11 L88.98,34.11 C90.33,34.11 90.69,35.04 90.69,36.72 C90.69,38.22 90.51,39.51 88.77,39.51 Z M88.89,49.92 L87.75,49.92 L87.75,43.41 L89.01,43.41 C90.72,43.41 90.93,45 90.93,46.65 C90.93,49.02 90.72,49.92 88.89,49.92 Z M107.79,54 L111.87,30.03 L106.32,30.03 L104.49,47.07 L104.43,47.07 L102.93,30.03 L97.29,30.03 L100.95,54 L107.79,54 Z M120.24,54.39 C126,54.39 127.74,50.58 127.74,48.27 C127.74,44.3386047 126.050573,42.8320335 124.321858,41.4368583 L123.877504,41.0790973 L123.877504,41.0790973 L123.583385,40.8390015 C123.437134,40.7180963 123.292326,40.5955814 123.15,40.47 C120.9,38.79 118.56,37.14 118.56,35.7 C118.56,34.59 119.28,33.9 120.45,33.9 C122.01,33.9 122.19,35.34 122.19,36.54 L122.19,37.83 L127.35,37.83 L127.35,35.67 C127.35,31.98 125.25,29.64 120.45,29.64 C116.04,29.64 113.4,31.65 113.4,36.36 C113.4,40.02 115.62,41.34 117.84,43.17 C120.03,44.76 122.22,46.17 122.22,48.27 C122.22,49.32 121.56,50.13 120.3,50.13 C118.74,50.13 118.44,48.93 118.44,47.64 L118.44,45.87 L113.1,45.87 L113.1,48.45 C113.1,50.94 114.78,54.39 120.24,54.39 Z M135.51,54 L135.51,43.65 L136.53,43.65 C138.09,43.65 138.63,44.25 138.63,45.63 L138.63,49.47 C138.63,51.06 138.63,53.22 139.26,54 L144.72,54 C144.216,53.376 144.1536,51.8688 144.1488,50.4768 L144.14895,49.96215 C144.1494,49.7937 144.15,49.629 144.15,49.47 L144.15,45.24 C144.15,43.23 142.89,41.82 140.94,41.43 L140.94,41.37 C143.88,40.47 144.27,38.64 144.27,35.82 C144.27,31.5 142.2,30.03 137.28,30.03 L129.99,30.03 L129.99,54 L135.51,54 Z M136.86,39.57 L135.51,39.57 L135.51,34.11 L136.59,34.11 C138.75,34.11 138.75,35.07 138.75,36.75 C138.75,38.31 138.75,39.57 136.86,39.57 Z M161.28,54.39 C165.66,54.39 168.39,51.72 168.39,47.46 L168.39,44.43 L162.87,44.43 L162.87,47.94 C162.87,48.57 162.87,50.13 161.28,50.13 C159.807778,50.13 159.698724,48.7925514 159.690646,48.0942966 L159.690646,35.9014098 C159.698724,35.0831276 159.807778,33.9 161.28,33.9 C162.87,33.9 162.87,35.28 162.87,36.09 L162.87,38.79 L168.39,38.79 L168.39,36.57 C168.39,31.89 165.39,29.64 161.28,29.64 C157.17,29.64 154.17,31.89 154.17,36.57 L154.17,47.46 C154.17,51.72 156.9,54.39 161.28,54.39 Z M177.12,54.39 C182.28,54.39 183.45,51.18 183.45,48.93 L183.45,39.9 C183.45,37.65 182.28,34.44 177.12,34.44 C171.96,34.44 170.79,37.65 170.79,39.9 L170.79,48.93 C170.79,51.18 171.96,54.39 177.12,54.39 Z M177.12,50.85 C176.056364,50.85 175.959669,50.1061983 175.950879,49.4750939 L175.950879,39.3549061 C175.959669,38.7238017 176.056364,37.98 177.12,37.98 C178.29,37.98 178.29,38.88 178.29,39.54 L178.29,49.29 C178.29,49.95 178.29,50.85 177.12,50.85 Z M190.95,54 L190.950769,40.7530311 C190.958847,40.2104348 191.051739,39.06 192.12,39.06 C193.29,39.06 193.29,40.2 193.29,40.89 L193.29,54 L198.45,54 L198.45,38.55 C198.45,36.24 197.22,34.44 194.76,34.44 C192.78,34.44 191.76,35.34 190.83,36.96 L190.77,36.96 L190.77,34.83 L185.79,34.83 L185.79,54 L190.95,54 Z M206.28,54.39 C211.89,54.39 212.22,50.31 212.22,48.75 C212.22,45.81 210.45,44.4 208.68,43.05 C207.15,41.7 205.14,40.8 205.14,39.27 C205.14,38.4 205.56,37.98 206.28,37.98 C207.36,37.98 207.39,39 207.39,39.48 L207.39,40.5 L212.01,40.5 L212.01,39.48 C212.01,35.94 209.85,34.44 206.28,34.44 C202.89,34.44 200.52,36.33 200.52,39.96 C200.52,42.78 202.29,44.37 203.97,45.66 C205.65,46.95 207.42,47.91 207.42,49.44 C207.42,50.31 207.06,50.85 206.28,50.85 C205.17,50.85 204.96,49.89 204.96,49.14 L204.96,47.97 L200.34,47.97 L200.34,49.23 C200.34,52.38 201.72,54.39 206.28,54.39 Z M221.01,54.39 L221.01,50.49 L220.35,50.49 C219.700588,50.49 219.662388,49.613045 219.66014,49.1096947 L219.66,38.76 L220.95,38.76 L220.95,35.04 L219.66,35.04 L219.66,30.87 L214.5,30.87 L214.5,35.04 L213.21,35.04 L213.21,38.76 L214.5,38.76 L214.5,50.94 C214.5,53.94 216.3,54.39 218.52,54.39 L221.01,54.39 Z M227.61,54 L227.61,43.11 C227.61,41.79 228.12,40.68 229.89,40.68 L231.09,40.68 L231.09,34.44 C229.051935,34.44 228.311051,35.9647555 227.678081,37.5276849 L227.538714,37.8750267 C227.492529,37.9906139 227.446452,38.1058065 227.4,38.22 L227.34,38.22 L227.34,34.83 L222.45,34.83 L222.45,54 L227.61,54 Z M236.13,54.39 C238.11,54.39 239.13,53.49 240.06,51.87 L240.12,51.87 L240.12,54 L245.1,54 L245.1,34.83 L239.94,34.83 L239.94,47.94 C239.94,48.39 239.94,49.77 238.77,49.77 C237.701739,49.77 237.608847,48.8196408 237.600769,48.1291625 L237.6,34.83 L232.44,34.83 L232.44,50.28 C232.44,52.59 233.67,54.39 236.13,54.39 Z M253.77,54.39 C258.93,54.39 260.1,51.18 260.1,48.93 L260.1,45.84 L254.94,45.84 L254.94,49.29 C254.94,49.95 254.94,50.85 253.77,50.85 C252.706364,50.85 252.609669,50.1061983 252.600879,49.4750939 L252.600879,39.3549061 C252.609669,38.7238017 252.706364,37.98 253.77,37.98 C254.94,37.98 254.94,38.88 254.94,39.54 L254.94,41.94 L260.1,41.94 L260.1,39.9 C260.1,37.65 258.93,34.44 253.77,34.44 C248.61,34.44 247.44,37.65 247.44,39.9 L247.44,48.93 C247.44,51.18 248.61,54.39 253.77,54.39 Z M269.34,54.39 L269.34,50.49 L268.68,50.49 C268.030588,50.49 267.992388,49.613045 267.99014,49.1096947 L267.99,38.76 L269.28,38.76 L269.28,35.04 L267.99,35.04 L267.99,30.87 L262.83,30.87 L262.83,35.04 L261.54,35.04 L261.54,38.76 L262.83,38.76 L262.83,50.94 C262.83,53.94 264.63,54.39 266.85,54.39 L269.34,54.39 Z M276.36,33.57 L276.36,30.03 L271.2,30.03 L271.2,33.57 L276.36,33.57 Z M276.36,54 L276.36,34.83 L271.2,34.83 L271.2,54 L276.36,54 Z M285.45,54.39 C290.61,54.39 291.78,51.18 291.78,48.93 L291.78,39.9 C291.78,37.65 290.61,34.44 285.45,34.44 C280.29,34.44 279.12,37.65 279.12,39.9 L279.12,48.93 C279.12,51.18 280.29,54.39 285.45,54.39 Z M285.45,50.85 C284.386364,50.85 284.289669,50.1061983 284.280879,49.4750939 L284.280879,39.3549061 C284.289669,38.7238017 284.386364,37.98 285.45,37.98 C286.62,37.98 286.62,38.88 286.62,39.54 L286.62,49.29 C286.62,49.95 286.62,50.85 285.45,50.85 Z M299.28,54 L299.280769,40.7530311 C299.288847,40.2104348 299.381739,39.06 300.45,39.06 C301.62,39.06 301.62,40.2 301.62,40.89 L301.62,54 L306.78,54 L306.78,38.55 C306.78,36.24 305.55,34.44 303.09,34.44 C301.11,34.44 300.09,35.34 299.16,36.96 L299.1,36.96 L299.1,34.83 L294.12,34.83 L294.12,54 L299.28,54 Z M314.61,54.39 C320.22,54.39 320.55,50.31 320.55,48.75 C320.55,45.81 318.78,44.4 317.01,43.05 C315.48,41.7 313.47,40.8 313.47,39.27 C313.47,38.4 313.89,37.98 314.61,37.98 C315.69,37.98 315.72,39 315.72,39.48 L315.72,40.5 L320.34,40.5 L320.34,39.48 C320.34,35.94 318.18,34.44 314.61,34.44 C311.22,34.44 308.85,36.33 308.85,39.96 C308.85,42.78 310.62,44.37 312.3,45.66 C313.98,46.95 315.75,47.91 315.75,49.44 C315.75,50.31 315.39,50.85 314.61,50.85 C313.5,50.85 313.29,49.89 313.29,49.14 L313.29,47.97 L308.67,47.97 L308.67,49.23 C308.67,52.38 310.05,54.39 314.61,54.39 Z M335.52,54 L335.52,44.49 L338.64,44.49 C343.59,44.49 344.46,40.83 344.46,37.32 C344.46,31.05 341.97,30.03 335.91,30.03 L330,30.03 L330,54 L335.52,54 Z M336.9,40.23 L335.52,40.23 L335.52,34.29 L336.15,34.29 C338.01,34.29 338.94,34.29 338.94,37.2 C338.94,39.36 338.67,40.23 336.9,40.23 Z M355.11,54 L358.62,34.83 L353.46,34.83 L352.17,47.1 L352.11,47.1 L350.91,34.83 L345.6,34.83 L349.08,54 L355.11,54 Z M366.84,54.39 L366.84,50.49 L366.18,50.49 C365.530588,50.49 365.492388,49.613045 365.49014,49.1096947 L365.49,38.76 L366.78,38.76 L366.78,35.04 L365.49,35.04 L365.49,30.87 L360.33,30.87 L360.33,35.04 L359.04,35.04 L359.04,38.76 L360.33,38.76 L360.33,50.94 C360.33,53.94 362.13,54.39 364.35,54.39 L366.84,54.39 Z M373.35,54 L373.35,48.48 L368.37,48.48 L368.37,54 L373.35,54 Z M394.86,54 L394.86,49.38 L388.86,49.38 L388.86,30.03 L383.34,30.03 L383.34,54 L394.86,54 Z M403.5,54.39 L403.5,50.49 L402.84,50.49 C402.190588,50.49 402.152388,49.613045 402.15014,49.1096947 L402.15,38.76 L403.44,38.76 L403.44,35.04 L402.15,35.04 L402.15,30.87 L396.99,30.87 L396.99,35.04 L395.7,35.04 L395.7,38.76 L396.99,38.76 L396.99,50.94 C396.99,53.94 398.79,54.39 401.01,54.39 L403.5,54.39 Z M408.78,54.39 C410.46,54.39 411.75,53.55 412.38,52.08 L412.44,52.08 L412.44,54 L417.6,54 L417.6,30.03 L412.44,30.03 L412.44,36.57 L412.38,36.57 C411.6,35.1 410.55,34.44 408.69,34.44 C406.17,34.44 404.94,36.24 404.94,39.3 L404.94,48.66 C404.94,52.26 406.35,54.39 408.78,54.39 Z M411.12,50.49 C410.61,50.49 410.1,50.22 410.1,49.23 L410.1,39.51 C410.1,38.73 410.64,38.34 411.12,38.34 C412.2,38.34 412.44,39.6 412.44,40.77 L412.439519,47.6593732 C412.433265,48.9379592 412.345714,50.49 411.12,50.49 Z M425.01,54 L425.01,48.48 L420.03,48.48 L420.03,54 L425.01,54 Z" id="BVSRConstructionsPvt.Ltd." fill="#008CD1"></path>
                    <g id="logo">
                        <path d="M61.1624085,2.84195315e-06 L3.84294838,2.84195315e-06 C2.82416637,-0.00123360335 1.84668503,0.40102935 1.12585735,1.11817033 C0.40502967,1.83531131 0,2.80848922 0,3.82329919 L0,61.1767036 C0,62.1908197 0.404478959,63.1633904 1.12443737,63.8804162 C1.84439578,64.597442 2.82084453,65.0000028 3.83893067,65.0000028 L13.2805707,65.0000028 C15.3985783,64.7945584 21.8584011,63.7066674 22.4851653,58.0150827 C22.7878335,55.261671 22.3974451,51.7725489 12.6852787,43.6817341 C8.5195735,40.2132892 -0.82229319,31.8983596 13.9655918,25.128222 C24.1652416,20.4591615 39.3990934,18.9810704 43.0739672,18.6829175 C43.3645822,12.4257095 48.5347172,7.43715197 54.88874,7.43715197 C59.1743071,7.43715197 62.9201607,9.71498645 65,13.1147295 L65,3.82329919 C65,1.7117525 63.2815519,2.84195315e-06 61.1617389,2.84195315e-06 M54.8900793,31.0292474 C48.6445348,31.0292474 43.5400226,26.21011 43.0913773,20.1029789 C40.9532811,20.2977454 35.2682085,20.9514139 27.7390028,22.886406 C21.9233543,24.3805053 14.2321005,26.755056 14.1457196,30.9758867 C14.0593386,35.1967173 19.265633,37.9668042 27.7390028,41.2638278 C36.2123725,44.5608515 56.4315442,50.1450478 58.2857216,60.0374529 C58.5334809,61.360131 58.1451014,63.217083 56.1235191,64.9999972 L61.1617389,64.9999972 C62.1797635,64.9999972 63.1561434,64.5974208 63.8759955,63.8803758 C64.5958476,63.1633308 65,62.1907583 65,61.1767036 L65,25.3516699 C62.9221695,28.7514129 59.1776552,31.0292474 54.8907489,31.0292474 L54.8900793,31.0292474 Z" id="Shape" fill="#8F9199"></path>
                        <path d="M54.5,11 C58.6421356,11 62,14.3578644 62,18.5 C62,22.6421356 58.6421356,26 54.5,26 C50.3578644,26 47,22.6421356 47,18.5 C47,14.3578644 50.3578644,11 54.5,11" id="Path" fill="#008CD1"></path>
                        <path d="M61.1101255,75.5158565 L61.1101255,70.9529899 C61.1101255,70.696843 61.0627068,70.5174516 60.9678692,70.4148159 C60.8882731,70.3193372 60.7707133,70.2631148 60.6459557,70.2608623 L60.1784466,70.2608623 L60.1784466,76.2332007 L60.5658113,76.2332007 C60.9264612,76.2332007 61.1070088,75.9938648 61.1074541,75.5151929 M63.9966606,86.7431893 L61.287779,86.7431893 C61.1627628,86.3713446 61.1017985,85.9812038 61.1074541,85.5892008 L61.1074541,79.0567897 C61.1074541,78.7471128 61.0687176,78.5378598 60.9912446,78.4290305 C60.9137717,78.3175469 60.7721832,78.2624686 60.5658113,78.2624686 L60.1784466,78.2624686 L60.1784466,86.7471708 L57.5737527,86.7471708 L57.5737527,68.2873362 L60.9271291,68.2873362 C61.7526167,68.2873362 62.4236036,68.4923865 62.94009,68.9024871 C63.4401687,69.2792901 63.7278401,69.8716822 63.7134837,70.4951107 L63.7134837,74.9551203 C63.7134837,75.5191745 63.5759024,75.9892197 63.3007399,76.3652558 C63.0255773,76.7412919 62.5698672,77.0317245 61.9336095,77.2365536 C62.4180928,77.2303093 62.8806854,77.4366937 63.1978879,77.8006078 C63.5393999,78.1705301 63.7240915,78.6571137 63.7134837,79.158983 L63.7134837,85.1830817 C63.7067435,85.4996641 63.7196802,85.816358 63.7522201,86.1313564 C63.7974954,86.3485386 63.8814032,86.5559535 64,86.7438529 L63.9966606,86.7431893 Z M44.4133699,84.4624196 C44.4133699,85.1972384 44.1462218,85.8037625 43.6119257,86.281992 C43.0776295,86.7602215 42.3122502,86.9995574 41.3157878,87.0000002 C40.3179897,87.0000002 39.5610701,86.7863228 39.0450291,86.3589688 C38.528988,85.9316148 38.2709675,85.316464 38.2709675,84.5135162 L38.2709675,79.2047709 L40.8756613,79.2047709 L40.8756613,84.2799314 C40.8756613,84.6050921 41.0132426,84.7674512 41.2884051,84.7670088 C41.427631,84.7754168 41.5638141,84.7241727 41.6625071,84.6262386 C41.7612002,84.5283044 41.8129508,84.3930599 41.8046688,84.2547149 L41.8046688,80.1530456 C41.8046688,79.8458019 41.7786219,79.6361065 41.726528,79.5252864 C41.6744341,79.4144664 41.5201561,79.1934898 41.2630261,78.8716472 L39.3262024,76.4614768 C38.86181,75.9151184 38.5695055,75.5008151 38.4492888,75.2185668 C38.3290722,74.9363185 38.2687412,74.5381626 38.268296,74.0240991 L38.268296,70.383627 C38.268296,68.7941002 39.3003781,67.999558 41.3645424,68.0000002 C43.3935321,68.0000002 44.4082496,68.8202015 44.4086948,70.4606038 L44.4086948,74.8184201 L41.804001,74.8184201 L41.804001,70.7174144 C41.804001,70.3073138 41.6481646,70.1020423 41.3364918,70.1015999 C41.024819,70.1011575 40.8689826,70.306429 40.8689826,70.7174144 L40.8689826,73.4852615 C40.8689826,73.9643757 40.894807,74.2720617 40.9464556,74.4083195 C40.9981042,74.5445773 41.1699695,74.7839133 41.4620514,75.1263273 L43.440283,77.467484 C43.805608,77.8901929 44.0553915,78.2704318 44.19698,78.6042191 C44.3385685,78.9380065 44.4033519,79.3686784 44.4033519,79.8982258 L44.4133699,84.4624196 Z M25.6782744,68.2873362 L24.1301512,86.7438529 L20.2858902,86.7438529 L18.7384349,68.2873362 L21.3177497,68.2873362 L21.9856199,78.7455645 L22.1145189,84.0775355 L22.2948438,84.0775355 L22.4237428,78.7455645 L23.0689054,68.2873362 L25.6782744,68.2873362 Z M3.53971219,84.0005587 L3.53971219,78.7714446 C3.53971219,78.5661731 3.47092156,78.4252702 3.33334029,78.3487357 C3.18281355,78.2685643 3.01385238,78.2287674 2.84312355,78.2332705 C2.76532347,78.2360319 2.68784856,78.2446837 2.61137258,78.2591507 L2.61137258,84.8725201 C2.81707661,84.9065846 2.97291299,84.9065846 3.07888173,84.8725201 C3.38610204,84.769442 3.53971219,84.4787882 3.53971219,84.0005587 Z M3.53971219,75.6187135 L3.53971219,70.9018933 C3.53971219,70.4917927 3.3838758,70.2354245 3.07220303,70.1327888 C2.9194291,70.0947788 2.76077181,70.0859959 2.60469388,70.1069087 L2.60469388,76.4389146 C2.76075802,76.4601721 2.91948135,76.4513856 3.07220303,76.4130345 C3.3838758,76.3108411 3.53971219,76.0460675 3.53971219,75.6187135 Z M6.14440607,84.6435805 C6.14440607,85.3615883 5.9335817,85.8913568 5.51193296,86.2328861 C5.09028423,86.5744154 4.35562698,86.7454012 3.30796122,86.7458436 L-1.46549439e-14,86.7458436 L-1.46549439e-14,68.2873362 L3.32799733,68.2873362 C4.23986281,68.2873362 4.93645145,68.4667276 5.41776326,68.8255103 C5.89907507,69.184293 6.1399536,69.6799971 6.14039884,70.3126225 L6.14039884,75.5397459 C6.14039884,76.5824719 5.51260083,77.2062495 4.25700481,77.4110786 C4.85897851,77.4110786 5.32337094,77.59047 5.6501821,77.9492527 C5.97699326,78.3080354 6.14039884,78.7095092 6.14039884,79.1536743 L6.14440607,84.6435805 Z" id="Shape" fill="#008CD1"></path>
                    </g>
                </g>
            </g>
        </g>
    </g>
</svg>